<svg width="20" height="19" viewBox="0 0 20 19" fill="none" xmlns="http://www.w3.org/2000/svg">
<path d="M10.3223 18.8184C10.7444 18.7798 11.1202 18.4721 11.2207 18.0274L11.7754 15.582L14.4863 12.5703C14.8173 12.2033 15 11.7264 15 11.2324L15 2.00002C15 0.895018 14.105 1.76815e-05 13 1.77781e-05L4.96875 1.84802e-05C4.22775 1.8545e-05 3.55686 0.4363 3.25586 1.1133L0.253905 7.86916C0.0869055 8.24316 -8.89441e-07 8.64861 -8.53598e-07 9.05861L-7.71297e-07 10C-6.75132e-07 11.1 0.899999 12 2 12L9 12C9 12 8 14.3707 8 16.1367C8 17.7497 9.03758 18.4557 9.89258 18.7637C10.0353 18.8154 10.1816 18.8313 10.3223 18.8184ZM18.5 12C19.328 12 20 11.328 20 10.5L20 1.50002C20 0.672018 19.328 1.72249e-05 18.5 1.72973e-05C17.672 1.73697e-05 17 0.672018 17 1.50002L17 10.5C17 11.328 17.672 12 18.5 12Z" fill="#FF4655"/>
</svg>
