<svg width="20" height="19" viewBox="0 0 20 19" fill="none" xmlns="http://www.w3.org/2000/svg">
<path d="M9.67773 0.181623C9.25563 0.220248 8.8798 0.527889 8.7793 0.972639L8.22461 3.41795L5.51367 6.42967C5.18267 6.79667 5 7.27356 5 7.76756V17C5 18.105 5.895 19 7 19H15.0312C15.7723 19 16.4431 18.5637 16.7441 17.8867L19.7461 11.1308C19.9131 10.7568 20 10.3514 20 9.94139V8.99998C20 7.89998 19.1 6.99998 18 6.99998H11C11 6.99998 12 4.62926 12 2.86326C12 1.25026 10.9624 0.544311 10.1074 0.236311C9.96467 0.184561 9.81844 0.168748 9.67773 0.181623ZM1.5 6.99998C0.672 6.99998 0 7.67198 0 8.49998V17.5C0 18.328 0.672 19 1.5 19C2.328 19 3 18.328 3 17.5V8.49998C3 7.67198 2.328 6.99998 1.5 6.99998Z" fill="#74D963"/>
</svg>
